<svg xmlns="http://www.w3.org/2000/svg" viewBox="0 0 512 512">
  <defs>
    <linearGradient id="grad" x1="0%" y1="0%" x2="100%" y2="100%">
      <stop offset="0%" stop-color="#111827" />
      <stop offset="100%" stop-color="#2563eb" />
    </linearGradient>
  </defs>
  <rect width="512" height="512" rx="128" fill="url(#grad)" />
  <g fill="#ffffff">
    <path d="M160 176c0-26.51 21.49-48 48-48h96c26.51 0 48 21.49 48 48v32h-32v-32c0-8.837-7.163-16-16-16h-96c-8.837 0-16 7.163-16 16v160c0 8.837 7.163 16 16 16h96c8.837 0 16-7.163 16-16v-32h32v32c0 26.51-21.49 48-48 48h-96c-26.51 0-48-21.49-48-48V176z"/>
    <path d="M256 224c35.346 0 64 28.654 64 64s-28.654 64-64 64-64-28.654-64-64 28.654-64 64-64zm0 32c-17.673 0-32 14.327-32 32s14.327 32 32 32 32-14.327 32-32-14.327-32-32-32z"/>
  </g>
</svg>
